HIERARCHY
ROOT Hips
{
	OFFSET	0.00	0.00	0.00
	CHANNELS 6 Xposition Yposition Zposition Zrotation Xrotation Yrotation
	JOINT LeftUpLeg
	{
		OFFSET	 0.126116	-0.014019	-0.065224
		CHANNELS 3 Zrotation Xrotation Yrotation
		JOINT LeftLeg
		{
			OFFSET	 0.000000	 0.000000	 0.569914
			CHANNELS 3 Zrotation Xrotation Yrotation
			JOINT LeftFoot
			{
				OFFSET	 0.000000	 0.000000	 0.544423
				CHANNELS 3 Zrotation Xrotation Yrotation
				JOINT LeftToeBase
				{
					OFFSET	 0.000000	 0.000000	 0.207117
					CHANNELS 3 Zrotation Xrotation Yrotation
					End Site
					{
						OFFSET	 0.000000	 0.000000	 0.207117
					}
				}
			}
		}
	}
	JOINT RightUpLeg
	{
		OFFSET	-0.124023	-0.008373	-0.065224
		CHANNELS 3 Zrotation Xrotation Yrotation
		JOINT RightLeg
		{
			OFFSET	 0.000000	 0.000000	 0.570047
			CHANNELS 3 Zrotation Xrotation Yrotation
			JOINT RightFoot
			{
				OFFSET	 0.000000	 0.000000	 0.544354
				CHANNELS 3 Zrotation Xrotation Yrotation
				JOINT RightToeBase
				{
					OFFSET	 0.000000	 0.000000	 0.207540
					CHANNELS 3 Zrotation Xrotation Yrotation
					End Site
					{
						OFFSET	 0.000000	 0.000000	 0.207540
					}
				}
			}
		}
	}
	JOINT Spine
	{
		OFFSET	 0.000184	-0.007763	 0.117403
		CHANNELS 3 Zrotation Xrotation Yrotation
		JOINT Spine1
		{
			OFFSET	 0.000000	 0.000000	 0.137269
			CHANNELS 3 Zrotation Xrotation Yrotation
			JOINT Spine2
			{
				OFFSET	 0.000000	 0.000000	 0.156879
				CHANNELS 3 Zrotation Xrotation Yrotation
				JOINT LeftShoulder
				{
					OFFSET	 0.080501	-0.002496	 0.160144
					CHANNELS 3 Zrotation Xrotation Yrotation
					JOINT LeftArm
					{
						OFFSET	 0.000000	 0.000000	 0.164363
						CHANNELS 3 Zrotation Xrotation Yrotation
						JOINT LeftForeArm
						{
							OFFSET	 0.000000	 0.000000	 0.364576
							CHANNELS 3 Zrotation Xrotation Yrotation
							JOINT LeftHand
							{
								OFFSET	 0.000000	 0.000000	 0.360812
								CHANNELS 3 Zrotation Xrotation Yrotation
								JOINT LeftHandIndex1
								{
									OFFSET	 0.000000	 0.000000	 0.086006
									CHANNELS 3 Zrotation Xrotation Yrotation
									JOINT LeftHandIndex2
									{
										OFFSET	 0.000000	 0.000000	 0.047236
										CHANNELS 3 Zrotation Xrotation Yrotation
										JOINT LeftHandIndex3
										{
											OFFSET	-0.004284	-0.000551	 0.038166
											CHANNELS 3 Zrotation Xrotation Yrotation
											End Site
											{
												OFFSET	-0.004284	-0.000551	 0.038166
											}
										}
									}
								}
							}
						}
					}
				}
				JOINT Neck
				{
					OFFSET	 0.000000	 0.000000	 0.176489
					CHANNELS 3 Zrotation Xrotation Yrotation
					JOINT Head
					{
						OFFSET	 0.000000	-0.001747	 0.077940
						CHANNELS 3 Zrotation Xrotation Yrotation
						End Site
						{
							OFFSET	 0.000000	-0.001747	 0.077940
						}
					}
				}
				JOINT RightShoulder
				{
					OFFSET	-0.080363	 0.000306	 0.159706
					CHANNELS 3 Zrotation Xrotation Yrotation
					JOINT RightArm
					{
						OFFSET	 0.000000	 0.000000	 0.164196
						CHANNELS 3 Zrotation Xrotation Yrotation
						JOINT RightForeArm
						{
							OFFSET	 0.000000	 0.000000	 0.365611
							CHANNELS 3 Zrotation Xrotation Yrotation
							JOINT RightHand
							{
								OFFSET	 0.000000	 0.000000	 0.360648
								CHANNELS 3 Zrotation Xrotation Yrotation
								JOINT RightHandIndex1
								{
									OFFSET	 0.000000	 0.000000	 0.069977
									CHANNELS 3 Zrotation Xrotation Yrotation
									JOINT RightHandIndex2
									{
										OFFSET	 0.000000	 0.000000	 0.052305
										CHANNELS 3 Zrotation Xrotation Yrotation
										JOINT RightHandIndex3
										{
											OFFSET	 0.009002	-0.000782	 0.042196
											CHANNELS 3 Zrotation Xrotation Yrotation
											End Site
											{
												OFFSET	 0.009002	-0.000782	 0.042196
											}
										}
									}
								}
							}
						}
					}
				}
			}
		}
	}
}
MOTION
Frames:    13
Frame Time: 0.03333334
 1.018075	-0.826371	-1.395144	 14.647000	-0.000014	-0.000013	 4.117246	-1.743471	 179.873500	 3.144691	-11.594560	 1.749916	 4.431090	 71.402270	 1.145380	-2.385832	 28.452790	-0.000001	-4.119452	-2.154259	-179.893100	-3.138409	-11.963990	-1.790670	-4.423576	 71.426400	-1.178366	 2.384659	 28.388700	-0.000001	-2.323673	 2.730958	 0.068420	-3.864215	-1.738181	-0.313943	-4.638612	-2.083055	-0.390800	-91.776180	 78.527400	-180.000000	 12.108180	-5.220949	-1.016094	-4.393934	-0.889002	-0.368817	-18.166240	-0.205549	-4.068507	-3.812334	 37.924440	-2.927599	-2.450526	 36.184240	 0.754587	-1.378229	 35.397820	-2.634230	-0.000002	-3.783157	-0.089647	-1.141496	 1.213370	 0.012113	 89.782090	 78.203830	-180.000000	-12.512950	-5.961371	 1.072636	 4.635309	-0.427243	 0.526685	 18.480970	-1.326614	 8.278519	 6.437017	 35.671460	-0.771858	 2.830251	 35.756010	-7.813440	-2.350882	 35.473990	 5.254307
 1.016665	-0.828289	-1.398435	 103.599400	 0.628485	 3.672512	 5.062070	-3.907794	 176.463000	-11.315450	-33.723480	-5.191699	 171.983700	 86.685010	 179.312500	-2.377564	 30.162840	-0.037408	 1.796956	-12.624290	 178.870300	 3.660587	-47.676430	 5.739618	-175.133700	 82.219570	-178.911300	 2.403636	 22.162730	-0.129818	-3.099357	 0.798272	-1.864597	-4.158496	-1.947574	-0.443810	-4.556840	-3.972371	-0.458538	-91.809440	 77.638980	 179.113900	 37.234270	 70.050290	-40.338200	-8.020262	-3.987722	-19.705930	 5.937631	-2.221031	-5.333480	-3.812334	 37.924440	-2.927599	-2.450526	 36.184240	 0.754587	-1.378229	 35.397820	-2.634230	 0.576617	 6.102687	-3.237278	-0.810416	-13.483630	-1.883936	 89.766330	 79.236210	-179.657500	-36.790170	 70.441800	 39.388900	 4.196880	-7.912577	 31.003020	-11.367810	-3.194997	 9.597102	 6.437017	 35.671460	-0.771858	 2.830251	 35.756010	-7.813440	-2.350882	 35.473990	 5.254307
 1.020344	-0.828265	-1.398540	 103.423000	 0.640884	 3.687183	 5.059865	-3.934121	 176.468600	-11.286590	-33.686640	-5.169322	 171.942700	 86.649580	 179.370500	-2.377614	 30.153440	-0.037194	 1.783593	-12.638880	 178.901600	 3.650787	-47.591280	 5.716990	-175.222700	 82.185380	-178.827300	 2.403673	 22.139100	-0.130301	-3.100936	 0.804160	-1.888524	-4.159379	-1.937461	-0.451472	-4.564988	-3.956793	-0.458742	-91.809600	 77.631650	 179.116500	 36.872240	 69.876630	-39.958750	-7.950434	-3.987012	-19.726040	 5.927164	-2.219498	-5.333955	-3.812334	 37.924440	-2.927599	-2.450526	 36.184240	 0.754587	-1.378229	 35.397820	-2.634230	 0.565267	 6.078804	-3.220472	-0.823564	-13.434150	-1.901376	 89.765980	 79.244000	-179.652300	-36.466070	 70.287120	 39.115110	 4.198382	-7.840477	 30.850500	-11.293580	-3.195530	 9.596872	 6.437017	 35.671460	-0.771858	 2.830251	 35.756010	-7.813440	-2.350882	 35.473990	 5.254307
 1.022969	-0.828334	-1.398629	 103.474900	 0.654350	 3.701789	 5.056404	-3.957618	 176.473800	-11.265540	-33.715130	-5.163119	 171.894300	 86.616440	 179.434200	-2.377730	 30.131440	-0.036714	 1.771819	-12.652600	 178.930500	 3.653740	-47.610410	 5.716789	-175.313100	 82.150620	-178.743100	 2.403729	 22.110250	-0.130880	-3.104338	 0.804906	-1.914243	-4.161840	-1.929507	-0.461148	-4.574288	-3.948606	-0.459354	-91.809730	 77.625250	 179.118300	 36.821910	 69.877280	-39.880460	-7.962202	-3.994106	-19.797920	 5.917144	-2.218148	-5.334420	-3.812334	 37.924440	-2.927599	-2.450526	 36.184240	 0.754587	-1.378229	 35.397820	-2.634230	 0.553944	 6.077707	-3.206745	-0.836452	-13.422490	-1.913089	 89.765620	 79.250980	-179.647100	-36.442910	 70.309580	 39.116450	 4.213441	-7.832142	 30.783580	-11.304170	-3.196075	 9.596593	 6.437017	 35.671460	-0.771858	 2.830251	 35.756010	-7.813440	-2.350882	 35.473990	 5.254307
 1.024738	-0.827663	-1.398729	 103.531200	 0.663507	 3.700519	 5.052235	-3.987830	 176.479600	-11.240870	-33.751680	-5.156441	 171.917200	 86.575370	 179.430900	-2.377528	 30.169100	-0.037545	 1.763990	-12.667450	 178.956400	 3.658649	-47.635140	 5.721052	-175.390300	 82.103620	-178.668300	 2.403713	 22.116740	-0.130748	-3.108254	 0.820192	-1.929437	-4.171570	-1.921204	-0.458510	-4.593522	-3.938868	-0.460900	-91.809810	 77.617540	 179.124400	 36.769590	 69.875990	-39.800590	-7.976672	-4.001739	-19.881500	 5.903966	-2.216806	-5.334840	-3.812334	 37.924440	-2.927599	-2.450526	 36.184240	 0.754587	-1.378229	 35.397820	-2.634230	 0.532556	 6.069722	-3.201795	-0.857387	-13.402140	-1.914638	 89.765460	 79.258230	-179.645800	-36.414790	 70.334260	 39.111210	 4.228896	-7.821490	 30.705400	-11.315090	-3.196184	 9.596530	 6.437017	 35.671460	-0.771858	 2.830251	 35.756010	-7.813440	-2.350882	 35.473990	 5.254307
 1.025011	-0.826908	-1.398983	 103.654900	 0.691897	 3.693879	 5.041413	-4.069521	 176.493700	-11.178980	-33.855720	-5.141905	 171.976900	 86.468190	 179.420700	-2.376979	 30.272870	-0.039843	 1.764410	-12.705560	 178.984900	 3.676941	-47.714360	 5.747585	-175.549900	 81.972050	-178.501900	 2.403639	 22.161640	-0.129843	-3.114131	 0.852149	-1.956151	-4.192062	-1.901578	-0.454975	-4.635688	-3.915860	-0.464209	-91.809800	 77.599850	 179.140700	 36.671450	 69.863380	-39.659060	-8.012208	-4.018163	-20.081980	 5.867485	-2.213898	-5.335926	-3.812334	 37.924440	-2.927599	-2.450526	 36.184240	 0.754587	-1.378229	 35.397820	-2.634230	 0.488509	 6.020127	-3.215322	-0.902072	-13.326940	-1.905976	 89.765010	 79.273950	-179.642200	-36.345710	 70.387440	 39.077140	 4.256240	-7.793021	 30.514810	-11.337080	-3.196543	 9.596406	 6.437017	 35.671460	-0.771858	 2.830251	 35.756010	-7.813440	-2.350882	 35.473990	 5.254307
 1.013089	-0.827577	-1.399693	 103.882500	 0.785974	 3.740290	 5.006179	-4.317050	 176.536200	-10.994780	-34.194670	-5.103974	 171.958400	 86.162020	 179.582900	-2.375717	 30.508580	-0.045085	 1.862627	-12.895640	 178.969000	 3.880363	-48.161530	 6.018750	-176.068700	 81.561820	-177.847000	 2.403521	 22.226630	-0.128534	-3.110205	 0.888179	-2.011504	-4.196230	-1.882031	-0.504080	-4.669835	-3.898580	-0.466935	-91.808470	 77.612420	 179.162500	 36.587800	 69.768800	-39.616850	-8.102201	-4.042059	-20.536750	 5.750606	-2.205033	-5.338796	-3.812334	 37.924440	-2.927599	-2.450526	 36.184240	 0.754587	-1.378229	 35.397820	-2.634230	 0.469036	 5.728856	-3.480852	-0.908865	-13.057350	-1.620887	 89.764300	 79.260220	-179.622200	-36.262200	 70.480280	 39.064100	 4.253409	-7.731849	 30.043470	-11.410820	-3.199431	 9.594746	 6.437017	 35.671460	-0.771858	 2.830251	 35.756010	-7.813440	-2.350882	 35.473990	 5.254307
 1.011372	-0.825156	-1.400384	 103.899400	 0.826693	 3.706661	 5.037265	-4.541044	 176.624600	-10.841670	-34.527770	-5.037666	 172.146800	 85.884960	 179.578600	-2.374687	 30.696940	-0.049286	 1.994378	-13.365870	 179.017000	 4.205941	-49.120430	 6.477967	-176.220700	 81.245120	-177.504500	 2.402549	 22.745800	-0.118023	-3.112129	 1.055519	-1.937167	-4.262990	-1.892345	-0.544446	-4.787087	-3.918316	-0.479491	-91.804440	 77.694090	 179.199100	 36.606220	 69.619540	-39.810880	-8.167939	-4.043427	-20.828520	 5.640021	-2.196779	-5.341347	-3.812334	 37.924440	-2.927599	-2.450526	 36.184240	 0.754587	-1.378229	 35.397820	-2.634230	 0.331802	 5.545353	-3.424037	-1.041585	-12.978750	-1.793569	 89.765590	 79.174220	-179.617000	-36.369350	 70.542500	 39.396220	 4.209496	-7.719766	 29.654390	-11.547980	-3.202853	 9.592962	 6.437017	 35.671460	-0.771858	 2.830251	 35.756010	-7.813440	-2.350882	 35.473990	 5.254307
 1.010906	-0.821407	-1.401195	 103.745000	 0.845310	 3.524583	 5.264379	-4.723862	 176.884200	-10.802120	-34.832000	-4.896015	 172.731500	 85.626460	 179.280100	-2.374033	 30.815860	-0.051940	 2.217706	-14.435930	 179.266400	 4.600240	-51.064000	 7.207696	-176.237800	 81.140800	-177.322300	 2.399518	 24.087660	-0.090609	-3.118141	 1.436992	-1.664236	-4.394968	-1.920171	-0.547405	-4.981989	-3.964571	-0.501034	-91.797710	 77.837140	 179.267500	 36.697820	 69.397170	-40.256860	-8.214766	-4.030312	-20.993900	 5.540908	-2.190548	-5.343364	-3.812334	 37.924440	-2.927599	-2.450526	 36.184240	 0.754587	-1.378229	 35.397820	-2.634230	 0.089002	 5.570054	-3.150801	-1.270955	-13.168860	-2.240485	 89.769250	 79.022830	-179.644900	-36.523870	 70.602750	 39.851840	 4.215421	-7.694394	 29.284720	-11.654640	-3.205860	 9.591213	 6.437017	 35.671460	-0.771858	 2.830251	 35.756010	-7.813440	-2.350882	 35.473990	 5.254307
 1.010327	-0.816736	-1.402231	 103.454900	 0.876975	 3.089330	 5.776438	-4.789307	 177.351200	-11.005870	-34.999350	-4.683020	 174.583500	 85.432580	 177.807000	-2.372563	 31.075480	-0.057750	 2.297651	-16.465290	 179.860600	 5.459002	-54.472530	 8.433843	-175.916400	 81.504950	-177.521900	 2.389314	 27.269010	-0.024041	-3.054229	 1.924300	-1.122363	-4.463125	-1.955486	-0.453273	-5.061332	-4.095593	-0.514767	-91.790570	 78.038140	 179.314300	 36.834170	 69.100560	-40.967850	-8.260619	-3.998327	-20.994800	 5.453459	-2.189454	-5.344254	-3.812334	 37.924440	-2.927599	-2.450526	 36.184240	 0.754587	-1.378229	 35.397820	-2.634230	-0.004757	 5.400871	-3.196614	-1.341050	-13.354510	-2.368740	 89.773940	 78.812810	-179.692600	-36.828770	 70.641040	 40.538090	 4.249330	-7.657247	 28.959610	-11.721900	-3.208026	 9.589970	 6.437017	 35.671460	-0.771858	 2.830251	 35.756010	-7.813440	-2.350882	 35.473990	 5.254307
 1.009718	-0.811545	-1.403644	 102.986300	 0.909664	 2.460985	 6.364563	-4.643929	 178.066000	-11.375160	-34.919370	-4.451944	 175.792900	 85.360760	 176.921200	-2.370924	 31.357260	-0.064101	 2.557034	-19.601420	-179.312500	 7.134368	-59.431870	 10.723630	-174.882700	 82.971050	-178.369900	 2.363781	 32.268840	 0.086347	-2.923763	 2.423832	-0.384608	-4.478818	-1.967194	-0.266302	-5.093838	-4.248288	-0.524819	-91.783620	 78.262790	 179.353900	 36.919530	 68.757720	-41.772720	-8.270741	-3.963366	-20.817460	 5.424580	-2.194605	-5.342917	-3.812334	 37.924440	-2.927599	-2.450526	 36.184240	 0.754587	-1.378229	 35.397820	-2.634230	-0.031907	 5.323767	-3.298632	-1.369381	-13.687110	-2.472885	 89.777440	 78.581560	-179.716500	-37.206710	 70.655560	 41.274890	 4.287000	-7.630052	 28.759130	-11.755750	-3.208434	 9.589829	 6.437017	 35.671460	-0.771858	 2.830251	 35.756010	-7.813440	-2.350882	 35.473990	 5.254307
 1.009442	-0.805906	-1.405493	 102.428200	 0.939840	 1.779110	 6.978925	-4.247407	 178.909300	-11.860930	-34.530320	-4.210165	 176.868200	 85.404460	 176.106700	-2.368976	 31.685580	-0.071526	 2.934077	-23.604750	-178.441600	 10.791320	-65.452740	 15.083260	-172.969700	 85.722220	-179.951200	 2.348920	 34.399570	 0.136136	-2.787581	 2.901268	 0.364694	-4.470622	-1.947973	-0.018203	-5.092209	-4.431623	-0.532739	-91.778730	 78.434400	 179.368800	 36.940440	 68.360180	-42.601960	-8.241624	-3.917447	-20.472750	 5.428823	-2.203267	-5.340536	-3.812334	 37.924440	-2.927599	-2.450526	 36.184240	 0.754587	-1.378229	 35.397820	-2.634230	-0.014001	 5.303250	-3.418585	-1.366217	-14.144740	-2.560136	 89.779690	 78.407430	-179.725500	-37.750780	 70.634960	 42.184500	 4.294575	-7.610482	 28.632690	-11.772590	-3.209292	 9.589326	 6.437017	 35.671460	-0.771858	 2.830251	 35.756010	-7.813440	-2.350882	 35.473990	 5.254307
 1.010353	-0.800105	-1.407609	 101.838700	 0.984959	 1.136397	 7.793772	-3.653535	 179.629900	-12.361020	-33.846120	-3.838793	 178.247900	 85.509090	 175.114200	-2.363744	 32.520420	-0.090592	 3.207900	-28.274810	-177.799900	 18.852540	-71.025930	 23.595690	-166.541500	 89.411160	 174.420200	 2.380321	 29.321770	 0.020311	-2.693099	 3.283392	 1.083833	-4.473367	-1.887376	 0.253303	-5.061068	-4.599166	-0.536821	-91.774930	 78.569870	 179.326900	 36.723680	 67.894970	-43.152680	-8.219652	-3.838376	-20.001680	 5.388692	-2.212188	-5.338714	-3.812334	 37.924440	-2.927599	-2.450526	 36.184240	 0.754587	-1.378229	 35.397820	-2.634230	 0.019782	 5.306889	-3.564804	-1.311410	-14.591040	-2.565212	 89.781340	 78.273880	-179.731700	-38.426820	 70.590020	 43.213190	 4.205663	-7.622873	 28.516860	-11.847970	-3.190714	 9.598449	 6.437017	 35.671460	-0.771858	 2.830251	 35.756010	-7.813440	-2.350882	 35.473990	 5.254307
